<?xml version="1.0" encoding="utf-8"?>
<!-- Generator: Adobe Illustrator 24.0.2, SVG Export Plug-In . SVG Version: 6.00 Build 0)  -->
<svg version="1.1" id="Layer_1" xmlns="http://www.w3.org/2000/svg" xmlns:xlink="http://www.w3.org/1999/xlink" x="0px" y="0px"
	 viewBox="0 0 50 50" style="enable-background:new 0 0 50 50;" xml:space="preserve">
<style type="text/css">
	.st0{fill:#FFFFFF;}
	.st1{fill:#707070;}
	.st2{display:none;}
	.st3{display:inline;}
</style>
<rect class="st0" width="50" height="50"/>
<g>
	<path class="st1" d="M24.94,38L24.94,38c-1.48,0-2.68-1.2-2.68-2.68V18.71c0-1.48,1.2-2.68,2.68-2.68h0c1.48,0,2.68,1.2,2.68,2.68
		v16.62C27.61,36.8,26.42,38,24.94,38z"/>
</g>
<g>
	<path class="st1" d="M16.41,27.6L16.41,27.6c-1.05-1.11-1.05-2.92,0-4.03l6.33-6.74c1.05-1.11,2.74-1.11,3.78,0l0,0
		c1.05,1.11,1.05,2.92,0,4.03l-6.33,6.74C19.15,28.72,17.45,28.72,16.41,27.6z"/>
</g>
<g>
	<path class="st1" d="M33.22,27.6L33.22,27.6c-1.05,1.11-2.74,1.11-3.78,0l-6.33-6.74c-1.05-1.11-1.05-2.92,0-4.03l0,0
		c1.05-1.11,2.74-1.11,3.78,0l6.33,6.74C34.26,24.69,34.26,26.49,33.22,27.6z"/>
</g>
<g class="st2">
	<path class="st3" d="M33.57,26L33.57,26c2.63,0,4.12-3.02,2.52-5.11l-8.14-10.65C27.35,9.46,26.42,9,25.43,9h0
		c-2.63,0-4.12,3.02-2.52,5.11l8.14,10.65C31.65,25.54,32.58,26,33.57,26z"/>
</g>
<g class="st2">
	<path class="st3" d="M16.29,26L16.29,26c-2.72,0-4.26-3.02-2.61-5.11l8.42-10.65C22.72,9.46,23.69,9,24.71,9h0
		c2.72,0,4.26,3.02,2.61,5.11L18.9,24.75C18.28,25.54,17.31,26,16.29,26z"/>
</g>
<path class="st1" d="M35,16H15c-1.1,0-2-0.9-2-2v0c0-1.1,0.9-2,2-2h20c1.1,0,2,0.9,2,2v0C37,15.1,36.1,16,35,16z"/>
</svg>
