<?xml version="1.0" encoding="utf-8"?>
<!-- Generator: Adobe Illustrator 24.0.2, SVG Export Plug-In . SVG Version: 6.00 Build 0)  -->
<svg version="1.1" id="Layer_1" xmlns="http://www.w3.org/2000/svg" xmlns:xlink="http://www.w3.org/1999/xlink" x="0px" y="0px"
	 viewBox="0 0 128 128" style="enable-background:new 0 0 128 128;" xml:space="preserve">
<style type="text/css">
	.st0{fill:none;stroke:#000000;stroke-width:9;stroke-miterlimit:10;}
</style>
<g>
	<path d="M116,11v104H12V11H116 M125,2H3v122h122V2L125,2z"/>
</g>
<g>
	<path d="M40.76,38.98c-1.23,0-2.24-1-2.24-2.24c0-1.23,1-2.24,2.24-2.24c1.23,0,2.24,1,2.24,2.24C43,37.97,42,38.98,40.76,38.98z"
		/>
	<path d="M40.76,29c-4.27,0-7.74,3.46-7.74,7.74s3.46,7.74,7.74,7.74s7.74-3.46,7.74-7.74S45.04,29,40.76,29L40.76,29z"/>
</g>
<g>
	<path d="M40.76,90.05c-1.23,0-2.24-1-2.24-2.24s1-2.24,2.24-2.24c1.23,0,2.24,1,2.24,2.24S42,90.05,40.76,90.05z"/>
	<path d="M40.76,80.07c-4.27,0-7.74,3.46-7.74,7.74c0,4.27,3.46,7.74,7.74,7.74s7.74-3.46,7.74-7.74
		C48.5,83.54,45.04,80.07,40.76,80.07L40.76,80.07z"/>
</g>
<path class="st0" d="M79.25,37.58c0,0,45.02,24.69,0,52.29"/>
</svg>
